<svg width="32" height="32" viewBox="0 0 32 32" fill="none" xmlns="http://www.w3.org/2000/svg">
<g clip-path="url(#clip0_1_2212)">
<g clip-path="url(#clip1_1_2212)">
<g clip-path="url(#clip2_1_2212)">
<path d="M6.61313 25.5456H28.4105C28.4773 25.5456 28.5419 25.5361 28.6041 25.5213C28.609 25.5213 28.6131 25.5221 28.6181 25.5221C29.0834 25.5221 29.4614 25.1445 29.4614 24.6788V0.843336C29.4615 0.377812 29.0834 0 28.6181 0H28.4122H7.96191H6.61431C4.3696 0 2.54373 1.82629 2.54373 4.07037C2.54373 4.10047 2.54965 4.12904 2.55258 4.15809C2.54965 6.23107 2.52394 25.2792 2.54965 27.7833C2.54805 27.8322 2.54206 27.88 2.54206 27.9295C2.54206 30.0873 4.23165 31.8538 6.35689 31.9873C6.39952 31.9939 6.44133 32.0001 6.48556 32.0001H28.618C29.0833 32.0001 29.4614 31.6225 29.4614 31.1567V27.9823C29.4614 27.5169 29.0833 27.139 28.618 27.139C28.1528 27.139 27.7747 27.517 27.7747 27.9823V30.3135H6.61313C5.33158 30.3135 4.28544 29.296 4.23402 28.0272C4.23528 28.0045 4.23939 27.9831 4.23897 27.9601C4.23813 27.923 4.23688 27.8654 4.23604 27.7888C4.30975 26.54 5.34621 25.5456 6.61313 25.5456ZM7.18817 4.07037C7.18817 3.60485 7.56598 3.22704 8.03151 3.22704C8.49703 3.22704 8.87484 3.60485 8.87484 4.07037V21.2008C8.87484 21.6661 8.49703 22.0441 8.03151 22.0441C7.56598 22.0441 7.18817 21.666 7.18817 21.2008V4.07037Z" fill="white"/>
</g>
</g>
</g>
<defs>
<clipPath id="clip0_1_2212">
<rect width="32" height="32" fill="white"/>
</clipPath>
<clipPath id="clip1_1_2212">
<rect width="32" height="32" fill="white"/>
</clipPath>
<clipPath id="clip2_1_2212">
<rect width="26.9231" height="32.0001" fill="white" transform="translate(2.53833)"/>
</clipPath>
</defs>
</svg>
