<svg width="157" height="31" viewBox="0 0 157 31" fill="none" xmlns="http://www.w3.org/2000/svg">
<path d="M15.5001 8.61224C15.5001 12.4162 12.4164 15.5 8.61236 15.5H1.72461V8.61224C1.72461 4.80824 4.80836 1.72449 8.61236 1.72449C12.4164 1.72449 15.5001 4.80824 15.5001 8.61224Z" fill="#D5D42B"/>
<path d="M15.5 22.3878C15.5 18.5838 18.5838 15.5 22.3878 15.5H29.2755V22.3878C29.2755 26.1918 26.1918 29.2755 22.3878 29.2755C18.5838 29.2755 15.5 26.1918 15.5 22.3878Z" fill="#D5D42B"/>
<path d="M1.72461 22.3878C1.72461 26.1918 4.80836 29.2755 8.61236 29.2755H15.5001V22.3878C15.5001 18.5838 12.4164 15.5 8.61236 15.5C4.80836 15.5 1.72461 18.5838 1.72461 22.3878Z" fill="#D5D42B"/>
<path d="M29.2755 8.61224C29.2755 4.80824 26.1918 1.72449 22.3878 1.72449H15.5V8.61224C15.5 12.4162 18.5838 15.5 22.3878 15.5C26.1918 15.5 29.2755 12.4162 29.2755 8.61224Z" fill="#D5D42B"/>
<path d="M51.27 8.738V22H48.61V13.374L45.057 22H43.043L39.471 13.374V22H36.811V8.738H39.832L44.05 18.599L48.268 8.738H51.27ZM62.0319 19.473H56.7499L55.8759 22H53.0829L57.8519 8.719H60.9489L65.7179 22H62.9059L62.0319 19.473ZM61.3099 17.345L59.3909 11.797L57.4719 17.345H61.3099ZM66.8545 15.35C66.8545 14.0453 67.1458 12.88 67.7285 11.854C68.3238 10.8153 69.1281 10.011 70.1415 9.441C71.1675 8.85833 72.3138 8.567 73.5805 8.567C75.0625 8.567 76.3608 8.947 77.4755 9.707C78.5901 10.467 79.3691 11.5183 79.8125 12.861H76.7535C76.4495 12.2277 76.0188 11.7527 75.4615 11.436C74.9168 11.1193 74.2835 10.961 73.5615 10.961C72.7888 10.961 72.0985 11.1447 71.4905 11.512C70.8951 11.8667 70.4265 12.3733 70.0845 13.032C69.7551 13.6907 69.5905 14.4633 69.5905 15.35C69.5905 16.224 69.7551 16.9967 70.0845 17.668C70.4265 18.3267 70.8951 18.8397 71.4905 19.207C72.0985 19.5617 72.7888 19.739 73.5615 19.739C74.2835 19.739 74.9168 19.5807 75.4615 19.264C76.0188 18.9347 76.4495 18.4533 76.7535 17.82H79.8125C79.3691 19.1753 78.5901 20.233 77.4755 20.993C76.3735 21.7403 75.0751 22.114 73.5805 22.114C72.3138 22.114 71.1675 21.829 70.1415 21.259C69.1281 20.6763 68.3238 19.872 67.7285 18.846C67.1458 17.82 66.8545 16.6547 66.8545 15.35ZM96.5434 8.738V22H93.8834V13.374L90.3304 22H88.3164L84.7444 13.374V22H82.0844V8.738H85.1054L89.3234 18.599L93.5414 8.738H96.5434ZM101.833 10.885V14.21H106.298V16.319H101.833V19.834H106.868V22H99.1733V8.719H106.868V10.885H101.833ZM116.126 22L113.2 16.832H111.946V22H109.286V8.738H114.264C115.29 8.738 116.164 8.92167 116.886 9.289C117.608 9.64367 118.146 10.1313 118.501 10.752C118.868 11.36 119.052 12.044 119.052 12.804C119.052 13.678 118.798 14.4697 118.292 15.179C117.785 15.8757 117.031 16.357 116.031 16.623L119.204 22H116.126ZM111.946 14.837H114.169C114.891 14.837 115.429 14.666 115.784 14.324C116.138 13.9693 116.316 13.4817 116.316 12.861C116.316 12.253 116.138 11.7843 115.784 11.455C115.429 11.113 114.891 10.942 114.169 10.942H111.946V14.837ZM129.589 19.473H124.307L123.433 22H120.64L125.409 8.719H128.506L133.275 22H130.463L129.589 19.473ZM128.867 17.345L126.948 11.797L125.029 17.345H128.867ZM137.718 19.891H142.088V22H135.058V8.738H137.718V19.891ZM148.415 8.738C149.808 8.738 151.03 9.01033 152.082 9.555C153.146 10.0997 153.963 10.8787 154.533 11.892C155.115 12.8927 155.407 14.058 155.407 15.388C155.407 16.718 155.115 17.8833 154.533 18.884C153.963 19.872 153.146 20.6383 152.082 21.183C151.03 21.7277 149.808 22 148.415 22H143.779V8.738H148.415ZM148.32 19.739C149.713 19.739 150.79 19.359 151.55 18.599C152.31 17.839 152.69 16.7687 152.69 15.388C152.69 14.0073 152.31 12.9307 151.55 12.158C150.79 11.3727 149.713 10.98 148.32 10.98H146.439V19.739H148.32Z" fill="white"/>
</svg>
